<svg xmlns="http://www.w3.org/2000/svg" width="1600" height="900" viewBox="0 0 1600 900" role="img" aria-labelledby="title desc">
  <title id="title">Smart Home IoT Monitor Clean Architecture</title>
  <desc id="desc">Clean left-to-right architecture diagram for the Smart Home IoT Monitor.</desc>
  <defs>
    <marker id="arrow" viewBox="0 0 10 10" refX="9" refY="5" markerWidth="8" markerHeight="8" orient="auto">
      <path d="M0 0L10 5L0 10Z" fill="#334155"/>
    </marker>
    <marker id="arrow-blue" viewBox="0 0 10 10" refX="9" refY="5" markerWidth="8" markerHeight="8" orient="auto">
      <path d="M0 0L10 5L0 10Z" fill="#2563eb"/>
    </marker>
    <marker id="arrow-purple" viewBox="0 0 10 10" refX="9" refY="5" markerWidth="8" markerHeight="8" orient="auto">
      <path d="M0 0L10 5L0 10Z" fill="#7c3aed"/>
    </marker>
    <marker id="arrow-red" viewBox="0 0 10 10" refX="9" refY="5" markerWidth="8" markerHeight="8" orient="auto">
      <path d="M0 0L10 5L0 10Z" fill="#dc2626"/>
    </marker>
    <style>
      .bg { fill: #f8fafc; }
      .title { font-family: Arial, sans-serif; font-size: 32px; font-weight: 700; fill: #0f172a; }
      .subtitle { font-family: Arial, sans-serif; font-size: 15px; fill: #475569; }
      .panel-title { font-family: Arial, sans-serif; font-size: 16px; font-weight: 700; }
      .box-title { font-family: Arial, sans-serif; font-size: 17px; font-weight: 700; fill: #0f172a; }
      .box-text { font-family: Arial, sans-serif; font-size: 13px; fill: #334155; }
      .small { font-family: Arial, sans-serif; font-size: 11px; fill: #64748b; }
      .label { font-family: Arial, sans-serif; font-size: 12px; font-weight: 700; fill: #334155; }
      .line { fill: none; stroke: #334155; stroke-width: 2.4; marker-end: url(#arrow); }
      .line-dash { fill: none; stroke: #64748b; stroke-width: 2.2; stroke-dasharray: 8 7; marker-end: url(#arrow); }
      .line-blue { fill: none; stroke: #2563eb; stroke-width: 2.8; marker-end: url(#arrow-blue); }
      .line-purple { fill: none; stroke: #7c3aed; stroke-width: 3; marker-end: url(#arrow-purple); }
      .line-red { fill: none; stroke: #dc2626; stroke-width: 2.8; marker-end: url(#arrow-red); }
    </style>
  </defs>

  <rect class="bg" width="1600" height="900"/>
  <text x="800" y="54" text-anchor="middle" class="title">Smart Home IoT Monitor Architecture</text>
  <text x="800" y="82" text-anchor="middle" class="subtitle">One FastAPI backend owns device state. Dashboard and Discord bot consume the same live source of truth.</text>

  <!-- Panels -->
  <rect x="70" y="135" width="330" height="560" rx="20" fill="#fff7ed" stroke="#fb923c" stroke-width="2"/>
  <text x="235" y="168" text-anchor="middle" class="panel-title" fill="#9a3412">Inputs</text>

  <rect x="465" y="135" width="560" height="560" rx="20" fill="#eff6ff" stroke="#3b82f6" stroke-width="2"/>
  <text x="745" y="168" text-anchor="middle" class="panel-title" fill="#1e3a8a">FastAPI Backend</text>

  <rect x="1090" y="135" width="440" height="560" rx="20" fill="#ecfdf5" stroke="#10b981" stroke-width="2"/>
  <text x="1310" y="168" text-anchor="middle" class="panel-title" fill="#065f46">Consumers</text>

  <rect x="70" y="745" width="1460" height="95" rx="20" fill="#f5f3ff" stroke="#8b5cf6" stroke-width="2"/>
  <text x="800" y="778" text-anchor="middle" class="panel-title" fill="#5b21b6">Deployment / External Services</text>

  <!-- Input boxes -->
  <rect x="115" y="225" width="240" height="120" rx="14" fill="#fed7aa" stroke="#c2410c" stroke-width="1.7"/>
  <text x="235" y="257" text-anchor="middle" class="box-title">Simulator</text>
  <text x="235" y="285" text-anchor="middle" class="box-text">backend/core/simulator.py</text>
  <text x="235" y="309" text-anchor="middle" class="box-text">15 devices, 3 rooms</text>
  <text x="235" y="333" text-anchor="middle" class="box-text">periodic state changes</text>

  <rect x="115" y="485" width="240" height="120" rx="14" fill="#ffedd5" stroke="#ea580c" stroke-width="1.7"/>
  <text x="235" y="517" text-anchor="middle" class="box-title">Hardware Concept</text>
  <text x="235" y="545" text-anchor="middle" class="box-text">ESP32 / Wokwi</text>
  <text x="235" y="569" text-anchor="middle" class="box-text">switches, relays, sensor</text>
  <text x="235" y="593" text-anchor="middle" class="box-text">physical deployment model</text>

  <!-- Backend boxes -->
  <rect x="515" y="220" width="210" height="105" rx="14" fill="#bfdbfe" stroke="#1d4ed8" stroke-width="1.7"/>
  <text x="620" y="253" text-anchor="middle" class="box-title">FastAPI App</text>
  <text x="620" y="281" text-anchor="middle" class="box-text">backend/main.py</text>
  <text x="620" y="305" text-anchor="middle" class="box-text">lifespan, CORS, health</text>

  <rect x="765" y="220" width="210" height="105" rx="14" fill="#bfdbfe" stroke="#1d4ed8" stroke-width="1.7"/>
  <text x="870" y="253" text-anchor="middle" class="box-title">API Gateways</text>
  <text x="870" y="281" text-anchor="middle" class="box-text">REST: /api/devices</text>
  <text x="870" y="305" text-anchor="middle" class="box-text">WebSocket: /ws</text>

  <rect x="585" y="385" width="320" height="145" rx="18" fill="#dbeafe" stroke="#1d4ed8" stroke-width="3.2"/>
  <text x="745" y="421" text-anchor="middle" class="box-title">DeviceStore Singleton</text>
  <text x="745" y="453" text-anchor="middle" class="box-text">backend/core/store.py</text>
  <text x="745" y="479" text-anchor="middle" class="box-text">authoritative device state</text>
  <text x="745" y="505" text-anchor="middle" class="box-text">usage stats and recent alerts</text>

  <rect x="585" y="590" width="320" height="70" rx="14" fill="#dbeafe" stroke="#1d4ed8" stroke-width="1.7"/>
  <text x="745" y="619" text-anchor="middle" class="box-title">Alert Engine</text>
  <text x="745" y="646" text-anchor="middle" class="box-text">after-hours and continuous-load checks</text>

  <!-- Consumer boxes -->
  <rect x="1135" y="225" width="270" height="130" rx="14" fill="#bbf7d0" stroke="#047857" stroke-width="1.7"/>
  <text x="1270" y="258" text-anchor="middle" class="box-title">React Dashboard</text>
  <text x="1270" y="287" text-anchor="middle" class="box-text">Vite + TypeScript</text>
  <text x="1270" y="312" text-anchor="middle" class="box-text">live WebSocket state</text>
  <text x="1270" y="337" text-anchor="middle" class="box-text">REST refresh fallback</text>

  <rect x="1135" y="455" width="270" height="130" rx="14" fill="#bbf7d0" stroke="#047857" stroke-width="1.7"/>
  <text x="1270" y="488" text-anchor="middle" class="box-title">Discord Bot</text>
  <text x="1270" y="517" text-anchor="middle" class="box-text">discord.py + httpx</text>
  <text x="1270" y="542" text-anchor="middle" class="box-text">!status, !room, !usage</text>
  <text x="1270" y="567" text-anchor="middle" class="box-text">polls alerts every minute</text>

  <path d="M1455 342L1510 375V445L1455 478L1400 445V375Z" fill="#86efac" stroke="#047857" stroke-width="1.7"/>
  <text x="1455" y="406" text-anchor="middle" class="box-title">Office Admin</text>
  <text x="1455" y="432" text-anchor="middle" class="box-text">UI + chat</text>

  <!-- Deployment boxes -->
  <rect x="120" y="790" width="210" height="38" rx="10" fill="#ddd6fe" stroke="#7c3aed" stroke-width="1.5"/>
  <text x="225" y="815" text-anchor="middle" class="box-text">Vercel: dashboard</text>

  <rect x="400" y="790" width="210" height="38" rx="10" fill="#ddd6fe" stroke="#7c3aed" stroke-width="1.5"/>
  <text x="505" y="815" text-anchor="middle" class="box-text">Render: backend / bot</text>

  <rect x="680" y="790" width="210" height="38" rx="10" fill="#ede9fe" stroke="#7c3aed" stroke-width="1.5"/>
  <text x="785" y="815" text-anchor="middle" class="box-text">Gemini / Groq optional</text>

  <rect x="960" y="790" width="210" height="38" rx="10" fill="#ede9fe" stroke="#7c3aed" stroke-width="1.5"/>
  <text x="1065" y="815" text-anchor="middle" class="box-text">Discord platform</text>

  <rect x="1240" y="780" width="250" height="55" rx="10" fill="#ffffff" stroke="#cbd5e1" stroke-width="1.4"/>
  <path class="line-purple" d="M1260 798H1300"/>
  <text x="1315" y="802" class="small">WebSocket live stream</text>
  <path class="line-blue" d="M1260 820H1300"/>
  <text x="1315" y="824" class="small">HTTP REST calls</text>

  <!-- Clean flow arrows -->
  <path class="line" d="M355 285H515"/>
  <text x="393" y="267" class="label">state changes</text>

  <path class="line-dash" d="M355 545H450V322H515"/>
  <text x="380" y="529" class="small">future physical input</text>

  <path class="line" d="M620 325V385"/>
  <text x="632" y="358" class="small">starts and owns</text>

  <path class="line" d="M725 272H765"/>
  <text x="731" y="255" class="small">serves</text>

  <path class="line" d="M870 325V385"/>
  <text x="882" y="358" class="small">read / write</text>

  <path class="line" d="M745 530V590"/>
  <text x="758" y="565" class="small">checks</text>

  <path class="line-purple" d="M975 260H1135"/>
  <text x="1002" y="242" class="label" fill="#5b21b6">WebSocket</text>

  <path class="line-blue" d="M975 305H1065V485H1135"/>
  <text x="1003" y="326" class="label" fill="#1d4ed8">REST</text>

  <path class="line-red" d="M975 520H1135"/>
  <text x="1010" y="502" class="label" fill="#991b1b">REST polling</text>

  <path class="line" d="M1405 290H1450V342"/>
  <text x="1410" y="273" class="small">dashboard view</text>

  <path class="line" d="M1405 520H1455V478"/>
  <text x="1412" y="542" class="small">bot replies</text>

  <path class="line-dash" d="M225 790V705H1270V355"/>
  <path class="line-dash" d="M505 790V705H745V660"/>
  <path class="line-dash" d="M785 790V705H1270V585"/>
  <path class="line-dash" d="M1065 790V705H1270V585"/>
</svg>
