<?xml version="1.0" encoding="UTF-8" standalone="no"?>
<!DOCTYPE svg PUBLIC "-//W3C//DTD SVG 1.1//EN"
 "http://www.w3.org/Graphics/SVG/1.1/DTD/svg11.dtd">
<!-- Generated by graphviz version 15.1.0 (20260618.0150)
 -->
<!-- Title: Architecture Pages: 1 -->
<svg width="1420pt" height="864pt"
 viewBox="0.00 0.00 1420.00 864.00" xmlns="http://www.w3.org/2000/svg" xmlns:xlink="http://www.w3.org/1999/xlink">
<g id="graph0" class="graph" transform="scale(1 1) rotate(0) translate(4 860.25)">
<title>Architecture</title>
<polygon fill="white" stroke="none" points="-4,4 -4,-860.25 1416.38,-860.25 1416.38,4 -4,4"/>
<text xml:space="preserve" text-anchor="middle" x="706.19" y="-835.15" font-family="Helvetica,sans-Serif" font-size="18.00" fill="#1f2937">IoT Smart Home Monitor — System Architecture</text>
<text xml:space="preserve" text-anchor="middle" x="706.19" y="-816.4" font-family="Helvetica,sans-Serif" font-size="18.00" fill="#1f2937">Data flow: 15 simulated devices → backend → dashboard + Discord bot</text>
<g id="clust1" class="cluster">
<title>cluster_device</title>
<path fill="#fef3c7" stroke="#f59e0b" d="M363.5,-715C363.5,-715 537,-715 537,-715 543,-715 549,-721 549,-727 549,-727 549,-787 549,-787 549,-793 543,-799 537,-799 537,-799 363.5,-799 363.5,-799 357.5,-799 351.5,-793 351.5,-787 351.5,-787 351.5,-727 351.5,-727 351.5,-721 357.5,-715 363.5,-715"/>
<text xml:space="preserve" text-anchor="middle" x="450.25" y="-782.65" font-family="Helvetica,sans-Serif" font-size="13.00" fill="#92400e">Device / Simulated Data Layer</text>
</g>
<g id="clust2" class="cluster">
<title>cluster_backend</title>
<path fill="#dbeafe" stroke="#3b82f6" d="M374.88,-265C374.88,-265 1392.38,-265 1392.38,-265 1398.38,-265 1404.38,-271 1404.38,-277 1404.38,-277 1404.38,-428 1404.38,-428 1404.38,-434 1398.38,-440 1392.38,-440 1392.38,-440 374.88,-440 374.88,-440 368.87,-440 362.88,-434 362.88,-428 362.88,-428 362.88,-277 362.88,-277 362.88,-271 368.88,-265 374.88,-265"/>
<text xml:space="preserve" text-anchor="middle" x="883.62" y="-423.65" font-family="Helvetica,sans-Serif" font-size="13.00" fill="#1e3a8a">FastAPI Backend &#160;(Single Source of Truth)</text>
</g>
<g id="clust3" class="cluster">
<title>cluster_clients</title>
<path fill="#dcfce7" stroke="#22c55e" d="M20,-537C20,-537 497.08,-537 497.08,-537 503.08,-537 509.08,-543 509.08,-549 509.08,-549 509.08,-695 509.08,-695 509.08,-701 503.08,-707 497.08,-707 497.08,-707 20,-707 20,-707 14,-707 8,-701 8,-695 8,-695 8,-549 8,-549 8,-543 14,-537 20,-537"/>
<text xml:space="preserve" text-anchor="middle" x="258.54" y="-690.65" font-family="Helvetica,sans-Serif" font-size="13.00" fill="#14532d">Client Interfaces</text>
</g>
<!-- SIM -->
<g id="node1" class="node">
<title>SIM</title>
<path fill="#fde68a" stroke="#475569" stroke-width="1.5" d="M515.5,-769.12C515.5,-769.12 384,-769.12 384,-769.12 378,-769.12 372,-763.12 372,-757.12 372,-757.12 372,-734.88 372,-734.88 372,-728.88 378,-722.88 384,-722.88 384,-722.88 515.5,-722.88 515.5,-722.88 521.5,-722.88 527.5,-728.88 527.5,-734.88 527.5,-734.88 527.5,-757.12 527.5,-757.12 527.5,-763.12 521.5,-769.12 515.5,-769.12"/>
<text xml:space="preserve" text-anchor="middle" x="449.75" y="-753.73" font-family="Helvetica,sans-Serif" font-size="12.00">Simulator Loop</text>
<text xml:space="preserve" text-anchor="middle" x="449.75" y="-740.98" font-family="Helvetica,sans-Serif" font-size="12.00">(asyncio task)</text>
<text xml:space="preserve" text-anchor="middle" x="449.75" y="-728.23" font-family="Helvetica,sans-Serif" font-size="12.00">backend/core/simulator.py</text>
</g>
<!-- STORE -->
<g id="node2" class="node">
<title>STORE</title>
<path fill="#bfdbfe" stroke="#475569" stroke-width="1.5" d="M827.88,-405.12C827.88,-405.12 710.62,-405.12 710.62,-405.12 704.62,-405.12 698.62,-399.12 698.62,-393.12 698.62,-393.12 698.62,-370.88 698.62,-370.88 698.62,-364.88 704.62,-358.88 710.62,-358.88 710.62,-358.88 827.88,-358.88 827.88,-358.88 833.88,-358.88 839.88,-364.88 839.88,-370.88 839.88,-370.88 839.88,-393.12 839.88,-393.12 839.88,-399.12 833.88,-405.12 827.88,-405.12"/>
<text xml:space="preserve" text-anchor="middle" x="769.25" y="-389.73" font-family="Helvetica,sans-Serif" font-size="12.00">In&#45;Memory Store</text>
<text xml:space="preserve" text-anchor="middle" x="769.25" y="-376.98" font-family="Helvetica,sans-Serif" font-size="12.00">(DeviceStore singleton)</text>
<text xml:space="preserve" text-anchor="middle" x="769.25" y="-364.23" font-family="Helvetica,sans-Serif" font-size="12.00">backend/core/store.py</text>
</g>
<!-- SIM&#45;&gt;STORE -->
<g id="edge1" class="edge">
<title>SIM&#45;&gt;STORE</title>
<path fill="none" stroke="#0ea5e9" stroke-width="1.2" stroke-dasharray="5,2" d="M528.16,-723.15C540.34,-719.56 549,-717 549,-717 549,-717 585.12,-634.5 585.12,-634.5 585.12,-634.5 697.12,-480.07 745.95,-412.75"/>
<polygon fill="#0ea5e9" stroke="#0ea5e9" stroke-width="1.2" points="747.83,-414.33 749.96,-407.22 743.86,-411.45 747.83,-414.33"/>
<text xml:space="preserve" text-anchor="middle" x="620.38" y="-645.45" font-family="Helvetica,sans-Serif" font-size="9.00">1. write new state</text>
<text xml:space="preserve" text-anchor="middle" x="620.38" y="-635.7" font-family="Helvetica,sans-Serif" font-size="9.00">(internal call)</text>
</g>
<!-- WSHUB -->
<g id="node4" class="node">
<title>WSHUB</title>
<path fill="#bfdbfe" stroke="#475569" stroke-width="1.5" d="M1384.38,-327.12C1384.38,-327.12 1301.62,-327.12 1301.62,-327.12 1295.62,-327.12 1289.62,-321.12 1289.62,-315.12 1289.62,-315.12 1289.62,-292.88 1289.62,-292.88 1289.62,-286.88 1295.62,-280.88 1301.62,-280.88 1301.62,-280.88 1384.38,-280.88 1384.38,-280.88 1390.38,-280.88 1396.38,-286.88 1396.38,-292.88 1396.38,-292.88 1396.38,-315.12 1396.38,-315.12 1396.38,-321.12 1390.38,-327.12 1384.38,-327.12"/>
<text xml:space="preserve" text-anchor="middle" x="1343" y="-311.73" font-family="Helvetica,sans-Serif" font-size="12.00">WebSocket Hub</text>
<text xml:space="preserve" text-anchor="middle" x="1343" y="-298.98" font-family="Helvetica,sans-Serif" font-size="12.00">/ ws</text>
<text xml:space="preserve" text-anchor="middle" x="1343" y="-286.23" font-family="Helvetica,sans-Serif" font-size="12.00">backend/main.py</text>
</g>
<!-- SIM&#45;&gt;WSHUB -->
<g id="edge2" class="edge">
<title>SIM&#45;&gt;WSHUB</title>
<path fill="none" stroke="#0ea5e9" stroke-width="1.2" d="M528.16,-723.15C540.34,-719.56 549,-717 549,-717 549,-717 1110.53,-424.55 1288.55,-331.84"/>
<polygon fill="#0ea5e9" stroke="#0ea5e9" stroke-width="1.2" points="1289.54,-334.08 1294.62,-328.68 1287.28,-329.74 1289.54,-334.08"/>
<text xml:space="preserve" text-anchor="middle" x="922.25" y="-549.96" font-family="Helvetica,sans-Serif" font-size="9.00">2. device_update</text>
<text xml:space="preserve" text-anchor="middle" x="922.25" y="-540.21" font-family="Helvetica,sans-Serif" font-size="9.00">(WS broadcast)</text>
</g>
<!-- ALERTS -->
<g id="node3" class="node">
<title>ALERTS</title>
<path fill="#bfdbfe" stroke="#475569" stroke-width="1.5" d="M1128.62,-309C1128.62,-309 1016.62,-309 1016.62,-309 1010.62,-309 1004.62,-303 1004.62,-297 1004.62,-297 1004.62,-285 1004.62,-285 1004.62,-279 1010.62,-273 1016.62,-273 1016.62,-273 1128.62,-273 1128.62,-273 1134.62,-273 1140.62,-279 1140.62,-285 1140.62,-285 1140.62,-297 1140.62,-297 1140.62,-303 1134.62,-309 1128.62,-309"/>
<text xml:space="preserve" text-anchor="middle" x="1072.62" y="-292.35" font-family="Helvetica,sans-Serif" font-size="12.00">Alert Engine</text>
<text xml:space="preserve" text-anchor="middle" x="1072.62" y="-279.6" font-family="Helvetica,sans-Serif" font-size="12.00">backend/core/alerts.py</text>
</g>
<!-- STORE&#45;&gt;ALERTS -->
<g id="edge3" class="edge">
<title>STORE&#45;&gt;ALERTS</title>
<path fill="none" stroke="#0ea5e9" stroke-width="1.2" stroke-dasharray="5,2" d="M806.82,-358.14C839.7,-336.68 882.88,-308.5 882.88,-308.5 882.88,-308.5 942.98,-302.93 995.35,-298.07"/>
<polygon fill="#0ea5e9" stroke="#0ea5e9" stroke-width="1.2" points="995.46,-300.52 1002.21,-297.44 995.01,-295.64 995.46,-300.52"/>
<text xml:space="preserve" text-anchor="middle" x="922.25" y="-319.45" font-family="Helvetica,sans-Serif" font-size="9.00">3. check thresholds</text>
<text xml:space="preserve" text-anchor="middle" x="922.25" y="-309.7" font-family="Helvetica,sans-Serif" font-size="9.00">(internal call)</text>
</g>
<!-- ALERTS&#45;&gt;STORE -->
<g id="edge4" class="edge">
<title>ALERTS&#45;&gt;STORE</title>
<path fill="none" stroke="#0ea5e9" stroke-width="1.2" stroke-dasharray="5,2" d="M1023.7,-309.74C994.05,-321.32 961.62,-334 961.62,-334 961.62,-334 901.63,-349.05 848.83,-362.29"/>
<polygon fill="#0ea5e9" stroke="#0ea5e9" stroke-width="1.2" points="848.38,-359.88 842.19,-363.96 849.57,-364.63 848.38,-359.88"/>
<text xml:space="preserve" text-anchor="middle" x="922.25" y="-364.65" font-family="Helvetica,sans-Serif" font-size="9.00">4. store alert</text>
<text xml:space="preserve" text-anchor="middle" x="922.25" y="-354.9" font-family="Helvetica,sans-Serif" font-size="9.00">(internal call)</text>
</g>
<!-- ALERTS&#45;&gt;WSHUB -->
<g id="edge5" class="edge">
<title>ALERTS&#45;&gt;WSHUB</title>
<path fill="none" stroke="#0ea5e9" stroke-width="1.2" d="M1141.35,-294.28C1184.11,-296.35 1238.93,-299.01 1280.46,-301.02"/>
<polygon fill="#0ea5e9" stroke="#0ea5e9" stroke-width="1.2" points="1280.18,-303.46 1287.29,-301.35 1280.42,-298.56 1280.18,-303.46"/>
<text xml:space="preserve" text-anchor="middle" x="1215.12" y="-310" font-family="Helvetica,sans-Serif" font-size="9.00">5. alert</text>
<text xml:space="preserve" text-anchor="middle" x="1215.12" y="-300.25" font-family="Helvetica,sans-Serif" font-size="9.00">(WS broadcast)</text>
</g>
<!-- WSHUB&#45;&gt;STORE -->
<g id="edge16" class="edge">
<title>WSHUB&#45;&gt;STORE</title>
<path fill="none" stroke="#0ea5e9" stroke-width="1.2" stroke-dasharray="5,2" d="M1289.01,-317.89C1267.06,-323.64 1246.62,-329 1246.62,-329 1246.62,-329 961.62,-383 961.62,-383 961.62,-383 882.88,-383 882.88,-383 882.88,-383 868.08,-382.87 849.22,-382.7"/>
<polygon fill="#0ea5e9" stroke="#0ea5e9" stroke-width="1.2" points="849.45,-380.25 842.43,-382.64 849.41,-385.15 849.45,-380.25"/>
<text xml:space="preserve" text-anchor="middle" x="1072.62" y="-386.67" font-family="Helvetica,sans-Serif" font-size="9.00">16. toggle → mutate</text>
<text xml:space="preserve" text-anchor="middle" x="1072.62" y="-375.42" font-family="Helvetica,sans-Serif" font-size="9.00">(internal call)</text>
</g>
<!-- DASH -->
<g id="node6" class="node">
<title>DASH</title>
<path fill="#bbf7d0" stroke="#475569" stroke-width="1.5" d="M125,-591.12C125,-591.12 31,-591.12 31,-591.12 25,-591.12 19,-585.12 19,-579.12 19,-579.12 19,-556.88 19,-556.88 19,-550.88 25,-544.88 31,-544.88 31,-544.88 125,-544.88 125,-544.88 131,-544.88 137,-550.88 137,-556.88 137,-556.88 137,-579.12 137,-579.12 137,-585.12 131,-591.12 125,-591.12"/>
<text xml:space="preserve" text-anchor="middle" x="78" y="-575.73" font-family="Helvetica,sans-Serif" font-size="12.00">React Dashboard</text>
<text xml:space="preserve" text-anchor="middle" x="78" y="-562.98" font-family="Helvetica,sans-Serif" font-size="12.00">(Vite + WebSocket)</text>
<text xml:space="preserve" text-anchor="middle" x="78" y="-550.23" font-family="Helvetica,sans-Serif" font-size="12.00">dashboard/src/</text>
</g>
<!-- WSHUB&#45;&gt;DASH -->
<g id="edge6" class="edge">
<title>WSHUB&#45;&gt;DASH</title>
<path fill="none" stroke="#7c3aed" stroke-width="2" d="M1323.61,-280.28C1295.9,-244.54 1246.62,-181 1246.62,-181 1246.62,-181 1073.62,-100 1073.62,-100 448.75,-100 448.75,-100 448.75,-100 448.75,-100 183,-199 183,-199 183,-199 113.9,-444.19 88.35,-534.83"/>
<polygon fill="#7c3aed" stroke="#7c3aed" stroke-width="2" points="86.03,-534.04 86.49,-541.44 90.74,-535.37 86.03,-534.04"/>
<text xml:space="preserve" text-anchor="middle" x="769.25" y="-110.95" font-family="Helvetica,sans-Serif" font-size="9.00">6. snapshot / device_update / alert</text>
<text xml:space="preserve" text-anchor="middle" x="769.25" y="-101.2" font-family="Helvetica,sans-Serif" font-size="9.00">WS (JSON)</text>
</g>
<!-- BOT -->
<g id="node7" class="node">
<title>BOT</title>
<path fill="#bbf7d0" stroke="#475569" stroke-width="1.5" d="M128,-677.12C128,-677.12 28,-677.12 28,-677.12 22,-677.12 16,-671.12 16,-665.12 16,-665.12 16,-642.88 16,-642.88 16,-636.88 22,-630.88 28,-630.88 28,-630.88 128,-630.88 128,-630.88 134,-630.88 140,-636.88 140,-642.88 140,-642.88 140,-665.12 140,-665.12 140,-671.12 134,-677.12 128,-677.12"/>
<text xml:space="preserve" text-anchor="middle" x="78" y="-661.73" font-family="Helvetica,sans-Serif" font-size="12.00">Discord Bot</text>
<text xml:space="preserve" text-anchor="middle" x="78" y="-648.98" font-family="Helvetica,sans-Serif" font-size="12.00">(discord.py + REST)</text>
<text xml:space="preserve" text-anchor="middle" x="78" y="-636.23" font-family="Helvetica,sans-Serif" font-size="12.00">bot/</text>
</g>
<!-- WSHUB&#45;&gt;BOT -->
<g id="edge10" class="edge">
<title>WSHUB&#45;&gt;BOT</title>
<path fill="none" stroke="#dc2626" stroke-width="2" d="M1288.98,-285.82C1210.77,-259.01 1073.62,-212 1073.62,-212 448.75,-212 448.75,-212 448.75,-212 448.75,-212 183,-264 183,-264 183,-264 140,-611 140,-611 140,-611 131.47,-617.02 120.78,-624.55"/>
<polygon fill="#dc2626" stroke="#dc2626" stroke-width="2" points="119.5,-622.46 115.19,-628.49 122.32,-626.46 119.5,-622.46"/>
<text xml:space="preserve" text-anchor="middle" x="769.25" y="-222.95" font-family="Helvetica,sans-Serif" font-size="9.00">10. device_update / alert</text>
<text xml:space="preserve" text-anchor="middle" x="769.25" y="-213.2" font-family="Helvetica,sans-Serif" font-size="9.00">WS (JSON)</text>
</g>
<!-- REST -->
<g id="node5" class="node">
<title>REST</title>
<path fill="#bfdbfe" stroke="#475569" stroke-width="1.5" d="M516.62,-405.12C516.62,-405.12 382.88,-405.12 382.88,-405.12 376.88,-405.12 370.88,-399.12 370.88,-393.12 370.88,-393.12 370.88,-370.88 370.88,-370.88 370.88,-364.88 376.88,-358.88 382.88,-358.88 382.88,-358.88 516.62,-358.88 516.62,-358.88 522.62,-358.88 528.62,-364.88 528.62,-370.88 528.62,-370.88 528.62,-393.12 528.62,-393.12 528.62,-399.12 522.62,-405.12 516.62,-405.12"/>
<text xml:space="preserve" text-anchor="middle" x="449.75" y="-389.73" font-family="Helvetica,sans-Serif" font-size="12.00">REST Routes</text>
<text xml:space="preserve" text-anchor="middle" x="449.75" y="-376.98" font-family="Helvetica,sans-Serif" font-size="12.00">/ api/devices</text>
<text xml:space="preserve" text-anchor="middle" x="449.75" y="-364.23" font-family="Helvetica,sans-Serif" font-size="12.00">backend/routes/devices.py</text>
</g>
<!-- REST&#45;&gt;STORE -->
<g id="edge15" class="edge">
<title>REST&#45;&gt;STORE</title>
<path fill="none" stroke="#0ea5e9" stroke-width="1.2" stroke-dasharray="5,2" d="M529.23,-382C578,-382 640.48,-382 689.32,-382"/>
<polygon fill="#0ea5e9" stroke="#0ea5e9" stroke-width="1.2" points="689.15,-384.45 696.15,-382 689.15,-379.55 689.15,-384.45"/>
<text xml:space="preserve" text-anchor="middle" x="620.38" y="-392.95" font-family="Helvetica,sans-Serif" font-size="9.00">15. read / mutate</text>
<text xml:space="preserve" text-anchor="middle" x="620.38" y="-383.2" font-family="Helvetica,sans-Serif" font-size="9.00">(internal call)</text>
</g>
<!-- REST&#45;&gt;DASH -->
<g id="edge9" class="edge">
<title>REST&#45;&gt;DASH</title>
<path fill="none" stroke="#7c3aed" stroke-width="1.2" d="M419.73,-358.19C380.8,-326.25 316.5,-273.5 316.5,-273.5 316.5,-273.5 183,-273.5 183,-273.5 183,-273.5 117.18,-459.87 90.27,-536.09"/>
<polygon fill="#7c3aed" stroke="#7c3aed" stroke-width="1.2" points="87.96,-535.27 87.94,-542.69 92.58,-536.9 87.96,-535.27"/>
<text xml:space="preserve" text-anchor="middle" x="249.75" y="-284.45" font-family="Helvetica,sans-Serif" font-size="9.00">9. JSON response</text>
<text xml:space="preserve" text-anchor="middle" x="249.75" y="-274.7" font-family="Helvetica,sans-Serif" font-size="9.00">HTTP 200</text>
</g>
<!-- DASH&#45;&gt;WSHUB -->
<g id="edge7" class="edge">
<title>DASH&#45;&gt;WSHUB</title>
<path fill="none" stroke="#7c3aed" stroke-width="2" d="M84.74,-544.38C106.54,-454.65 183,-140 183,-140 183,-140 448.75,0 448.75,0 448.75,0 448.75,0 1073.62,0 1073.62,0 1246.62,-142 1246.62,-142 1246.62,-142 1295.42,-224.88 1323.2,-272.07"/>
<polygon fill="#7c3aed" stroke="#7c3aed" stroke-width="2" points="1320.93,-273.05 1326.6,-277.84 1325.16,-270.56 1320.93,-273.05"/>
<text xml:space="preserve" text-anchor="middle" x="769.25" y="-10.95" font-family="Helvetica,sans-Serif" font-size="9.00">7. toggle</text>
<text xml:space="preserve" text-anchor="middle" x="769.25" y="-1.2" font-family="Helvetica,sans-Serif" font-size="9.00">WS (JSON)</text>
</g>
<!-- DASH&#45;&gt;REST -->
<g id="edge8" class="edge">
<title>DASH&#45;&gt;REST</title>
<path fill="none" stroke="#7c3aed" stroke-width="1.2" d="M85.9,-544.13C109.13,-463.84 183,-208.5 183,-208.5 183,-208.5 316.5,-208.5 316.5,-208.5 316.5,-208.5 387.58,-301.74 425.52,-351.52"/>
<polygon fill="#7c3aed" stroke="#7c3aed" stroke-width="1.2" points="423.35,-352.71 429.54,-356.79 427.24,-349.74 423.35,-352.71"/>
<text xml:space="preserve" text-anchor="middle" x="249.75" y="-219.45" font-family="Helvetica,sans-Serif" font-size="9.00">8. GET /api/usage</text>
<text xml:space="preserve" text-anchor="middle" x="249.75" y="-209.7" font-family="Helvetica,sans-Serif" font-size="9.00">HTTP GET</text>
</g>
<!-- USER -->
<g id="node8" class="node">
<title>USER</title>
<path fill="#86efac" stroke="#475569" stroke-width="1.5" d="M501.08,-627.51C501.08,-627.51 501.08,-632.49 501.08,-632.49 501.08,-634.97 498.73,-638.28 496.39,-639.1 496.39,-639.1 475.7,-646.36 475.7,-646.36 473.36,-647.18 468.52,-648 466.04,-648 466.04,-648 433.46,-648 433.46,-648 430.98,-648 426.14,-647.18 423.8,-646.36 423.8,-646.36 403.11,-639.1 403.11,-639.1 400.77,-638.28 398.42,-634.97 398.42,-632.49 398.42,-632.49 398.42,-627.51 398.42,-627.51 398.42,-625.03 400.77,-621.72 403.11,-620.9 403.11,-620.9 423.8,-613.64 423.8,-613.64 426.14,-612.82 430.98,-612 433.46,-612 433.46,-612 466.04,-612 466.04,-612 468.52,-612 473.36,-612.82 475.7,-613.64 475.7,-613.64 496.39,-620.9 496.39,-620.9 498.73,-621.72 501.08,-625.03 501.08,-627.51"/>
<text xml:space="preserve" text-anchor="middle" x="449.75" y="-624.98" font-family="Helvetica,sans-Serif" font-size="12.00">Boss / User</text>
</g>
<!-- DASH&#45;&gt;USER -->
<g id="edge17" class="edge">
<title>DASH&#45;&gt;USER</title>
<path fill="none" stroke="#475569" stroke-width="1.2" stroke-dasharray="1,5" d="M137.59,-577.82C206.81,-589.43 321.29,-608.63 390.41,-620.22"/>
<polygon fill="#475569" stroke="#475569" stroke-width="1.2" points="389.92,-622.62 397.23,-621.36 390.73,-617.79 389.92,-622.62"/>
<text xml:space="preserve" text-anchor="middle" x="249.75" y="-607.58" font-family="Helvetica,sans-Serif" font-size="9.00">sees live UI</text>
</g>
<!-- BOT&#45;&gt;REST -->
<g id="edge11" class="edge">
<title>BOT&#45;&gt;REST</title>
<path fill="none" stroke="#dc2626" stroke-width="1.2" d="M112.71,-630.24C126.82,-620.29 140,-611 140,-611 140,-611 183,-468.5 183,-468.5 183,-468.5 316.5,-429 316.5,-429 316.5,-429 343.93,-419.25 373.8,-408.64"/>
<polygon fill="#dc2626" stroke="#dc2626" stroke-width="1.2" points="374.36,-411.04 380.14,-406.38 372.72,-406.42 374.36,-411.04"/>
<text xml:space="preserve" text-anchor="middle" x="249.75" y="-479.45" font-family="Helvetica,sans-Serif" font-size="9.00">11. GET /api/devices</text>
<text xml:space="preserve" text-anchor="middle" x="249.75" y="-469.7" font-family="Helvetica,sans-Serif" font-size="9.00">HTTP GET</text>
</g>
<!-- BOT&#45;&gt;REST -->
<g id="edge12" class="edge">
<title>BOT&#45;&gt;REST</title>
<path fill="none" stroke="#dc2626" stroke-width="1.2" d="M112.71,-630.24C126.82,-620.29 140,-611 140,-611 140,-611 183,-399.5 183,-399.5 183,-399.5 284.53,-392.81 362.08,-387.71"/>
<polygon fill="#dc2626" stroke="#dc2626" stroke-width="1.2" points="361.82,-390.18 368.64,-387.28 361.5,-385.29 361.82,-390.18"/>
<text xml:space="preserve" text-anchor="middle" x="249.75" y="-410.45" font-family="Helvetica,sans-Serif" font-size="9.00">12. GET /api/devices/{room}</text>
<text xml:space="preserve" text-anchor="middle" x="249.75" y="-400.7" font-family="Helvetica,sans-Serif" font-size="9.00">HTTP GET</text>
</g>
<!-- BOT&#45;&gt;REST -->
<g id="edge13" class="edge">
<title>BOT&#45;&gt;REST</title>
<path fill="none" stroke="#dc2626" stroke-width="1.2" d="M112.71,-630.24C126.82,-620.29 140,-611 140,-611 140,-611 183,-361.5 183,-361.5 183,-361.5 316.5,-361.5 316.5,-361.5 316.5,-361.5 336.93,-364.67 361.74,-368.51"/>
<polygon fill="#dc2626" stroke="#dc2626" stroke-width="1.2" points="361.2,-370.91 368.5,-369.56 361.95,-366.07 361.2,-370.91"/>
<text xml:space="preserve" text-anchor="middle" x="249.75" y="-372.45" font-family="Helvetica,sans-Serif" font-size="9.00">13. POST /api/devices/{id}/toggle</text>
<text xml:space="preserve" text-anchor="middle" x="249.75" y="-362.7" font-family="Helvetica,sans-Serif" font-size="9.00">HTTP POST</text>
</g>
<!-- BOT&#45;&gt;REST -->
<g id="edge14" class="edge">
<title>BOT&#45;&gt;REST</title>
<path fill="none" stroke="#dc2626" stroke-width="1.2" d="M112.71,-630.24C126.82,-620.29 140,-611 140,-611 140,-611 183,-556.5 183,-556.5 183,-556.5 316.5,-494 316.5,-494 316.5,-494 374.93,-444.52 414.11,-411.34"/>
<polygon fill="#dc2626" stroke="#dc2626" stroke-width="1.2" points="415.56,-413.32 419.32,-406.93 412.39,-409.58 415.56,-413.32"/>
<text xml:space="preserve" text-anchor="middle" x="249.75" y="-567.45" font-family="Helvetica,sans-Serif" font-size="9.00">14. GET /api/usage</text>
<text xml:space="preserve" text-anchor="middle" x="249.75" y="-557.7" font-family="Helvetica,sans-Serif" font-size="9.00">HTTP GET</text>
</g>
<!-- BOT&#45;&gt;USER -->
<g id="edge18" class="edge">
<title>BOT&#45;&gt;USER</title>
<path fill="none" stroke="#475569" stroke-width="1.2" stroke-dasharray="1,5" d="M140.47,-650.01C209.59,-645.52 321.07,-638.29 389.34,-633.86"/>
<polygon fill="#475569" stroke="#475569" stroke-width="1.2" points="389.21,-636.32 396.04,-633.42 388.9,-631.43 389.21,-636.32"/>
<text xml:space="preserve" text-anchor="middle" x="249.75" y="-657.86" font-family="Helvetica,sans-Serif" font-size="9.00">reads !status</text>
<text xml:space="preserve" text-anchor="middle" x="249.75" y="-648.11" font-family="Helvetica,sans-Serif" font-size="9.00">!room !usage</text>
</g>
</g>
</svg>
