<?xml version="1.0" encoding="UTF-8" standalone="no"?>
<!DOCTYPE svg PUBLIC "-//W3C//DTD SVG 1.1//EN"
 "http://www.w3.org/Graphics/SVG/1.1/DTD/svg11.dtd">
<!-- Generated by graphviz version 15.1.0 (20260618.0150)
 -->
<!-- Title: Architecture Pages: 1 -->
<svg width="1459pt" height="817pt"
 viewBox="0.00 0.00 1459.00 817.00" xmlns="http://www.w3.org/2000/svg" xmlns:xlink="http://www.w3.org/1999/xlink">
<g id="graph0" class="graph" transform="scale(1 1) rotate(0) translate(4 813.25)">
<title>Architecture</title>
<polygon fill="white" stroke="none" points="-4,4 -4,-813.25 1454.62,-813.25 1454.62,4 -4,4"/>
<text xml:space="preserve" text-anchor="middle" x="725.31" y="-788.15" font-family="Helvetica,sans-Serif" font-size="18.00" fill="#1f2937">IoT Smart Home Monitor — System Architecture</text>
<text xml:space="preserve" text-anchor="middle" x="725.31" y="-769.4" font-family="Helvetica,sans-Serif" font-size="18.00" fill="#1f2937">Data flow: 15 simulated devices → backend → dashboard + Discord bot</text>
<g id="clust1" class="cluster">
<title>cluster_device</title>
<path fill="#fef3c7" stroke="#f59e0b" d="M401.75,-668C401.75,-668 575.25,-668 575.25,-668 581.25,-668 587.25,-674 587.25,-680 587.25,-680 587.25,-740 587.25,-740 587.25,-746 581.25,-752 575.25,-752 575.25,-752 401.75,-752 401.75,-752 395.75,-752 389.75,-746 389.75,-740 389.75,-740 389.75,-680 389.75,-680 389.75,-674 395.75,-668 401.75,-668"/>
<text xml:space="preserve" text-anchor="middle" x="488.5" y="-735.65" font-family="Helvetica,sans-Serif" font-size="13.00" fill="#92400e">Device / Simulated Data Layer</text>
</g>
<g id="clust2" class="cluster">
<title>cluster_backend</title>
<path fill="#dbeafe" stroke="#3b82f6" d="M413.12,-211C413.12,-211 1430.62,-211 1430.62,-211 1436.62,-211 1442.62,-217 1442.62,-223 1442.62,-223 1442.62,-374 1442.62,-374 1442.62,-380 1436.62,-386 1430.62,-386 1430.62,-386 413.12,-386 413.12,-386 407.12,-386 401.12,-380 401.12,-374 401.12,-374 401.12,-223 401.12,-223 401.12,-217 407.12,-211 413.12,-211"/>
<text xml:space="preserve" text-anchor="middle" x="921.88" y="-369.65" font-family="Helvetica,sans-Serif" font-size="13.00" fill="#1e3a8a">FastAPI Backend &#160;(Single Source of Truth)</text>
</g>
<g id="clust3" class="cluster">
<title>cluster_clients</title>
<path fill="#dcfce7" stroke="#22c55e" d="M20,-490C20,-490 535.33,-490 535.33,-490 541.33,-490 547.33,-496 547.33,-502 547.33,-502 547.33,-648 547.33,-648 547.33,-654 541.33,-660 535.33,-660 535.33,-660 20,-660 20,-660 14,-660 8,-654 8,-648 8,-648 8,-502 8,-502 8,-496 14,-490 20,-490"/>
<text xml:space="preserve" text-anchor="middle" x="277.66" y="-643.65" font-family="Helvetica,sans-Serif" font-size="13.00" fill="#14532d">Client Interfaces</text>
</g>
<!-- SIM -->
<g id="node1" class="node">
<title>SIM</title>
<path fill="#fde68a" stroke="#475569" stroke-width="1.5" d="M553.75,-722.12C553.75,-722.12 422.25,-722.12 422.25,-722.12 416.25,-722.12 410.25,-716.12 410.25,-710.12 410.25,-710.12 410.25,-687.88 410.25,-687.88 410.25,-681.88 416.25,-675.88 422.25,-675.88 422.25,-675.88 553.75,-675.88 553.75,-675.88 559.75,-675.88 565.75,-681.88 565.75,-687.88 565.75,-687.88 565.75,-710.12 565.75,-710.12 565.75,-716.12 559.75,-722.12 553.75,-722.12"/>
<text xml:space="preserve" text-anchor="middle" x="488" y="-706.73" font-family="Helvetica,sans-Serif" font-size="12.00">Simulator Loop</text>
<text xml:space="preserve" text-anchor="middle" x="488" y="-693.98" font-family="Helvetica,sans-Serif" font-size="12.00">(asyncio task)</text>
<text xml:space="preserve" text-anchor="middle" x="488" y="-681.23" font-family="Helvetica,sans-Serif" font-size="12.00">backend/core/simulator.py</text>
</g>
<!-- STORE -->
<g id="node2" class="node">
<title>STORE</title>
<path fill="#bfdbfe" stroke="#475569" stroke-width="1.5" d="M866.12,-351.12C866.12,-351.12 748.88,-351.12 748.88,-351.12 742.88,-351.12 736.88,-345.12 736.88,-339.12 736.88,-339.12 736.88,-316.88 736.88,-316.88 736.88,-310.88 742.88,-304.88 748.88,-304.88 748.88,-304.88 866.12,-304.88 866.12,-304.88 872.12,-304.88 878.12,-310.88 878.12,-316.88 878.12,-316.88 878.12,-339.12 878.12,-339.12 878.12,-345.12 872.12,-351.12 866.12,-351.12"/>
<text xml:space="preserve" text-anchor="middle" x="807.5" y="-335.73" font-family="Helvetica,sans-Serif" font-size="12.00">In&#45;Memory Store</text>
<text xml:space="preserve" text-anchor="middle" x="807.5" y="-322.98" font-family="Helvetica,sans-Serif" font-size="12.00">(DeviceStore singleton)</text>
<text xml:space="preserve" text-anchor="middle" x="807.5" y="-310.23" font-family="Helvetica,sans-Serif" font-size="12.00">backend/core/store.py</text>
</g>
<!-- SIM&#45;&gt;STORE -->
<g id="edge1" class="edge">
<title>SIM&#45;&gt;STORE</title>
<path fill="none" stroke="#0ea5e9" stroke-width="1.2" stroke-dasharray="5,2" d="M566.41,-676.15C578.59,-672.56 587.25,-670 587.25,-670 587.25,-670 623.38,-607.5 623.38,-607.5 623.38,-607.5 738.55,-431.7 786.22,-358.95"/>
<polygon fill="#0ea5e9" stroke="#0ea5e9" stroke-width="1.2" points="788.1,-360.55 789.89,-353.35 784.01,-357.86 788.1,-360.55"/>
<text xml:space="preserve" text-anchor="middle" x="658.62" y="-618.45" font-family="Helvetica,sans-Serif" font-size="9.00">1. write new state</text>
<text xml:space="preserve" text-anchor="middle" x="658.62" y="-608.7" font-family="Helvetica,sans-Serif" font-size="9.00">(internal call)</text>
</g>
<!-- WSHUB -->
<g id="node4" class="node">
<title>WSHUB</title>
<path fill="#bfdbfe" stroke="#475569" stroke-width="1.5" d="M1422.62,-282.12C1422.62,-282.12 1339.88,-282.12 1339.88,-282.12 1333.88,-282.12 1327.88,-276.12 1327.88,-270.12 1327.88,-270.12 1327.88,-247.88 1327.88,-247.88 1327.88,-241.88 1333.88,-235.88 1339.88,-235.88 1339.88,-235.88 1422.62,-235.88 1422.62,-235.88 1428.62,-235.88 1434.62,-241.88 1434.62,-247.88 1434.62,-247.88 1434.62,-270.12 1434.62,-270.12 1434.62,-276.12 1428.62,-282.12 1422.62,-282.12"/>
<text xml:space="preserve" text-anchor="middle" x="1381.25" y="-266.73" font-family="Helvetica,sans-Serif" font-size="12.00">WebSocket Hub</text>
<text xml:space="preserve" text-anchor="middle" x="1381.25" y="-253.97" font-family="Helvetica,sans-Serif" font-size="12.00">/ ws</text>
<text xml:space="preserve" text-anchor="middle" x="1381.25" y="-241.22" font-family="Helvetica,sans-Serif" font-size="12.00">backend/main.py</text>
</g>
<!-- SIM&#45;&gt;WSHUB -->
<g id="edge2" class="edge">
<title>SIM&#45;&gt;WSHUB</title>
<path fill="none" stroke="#0ea5e9" stroke-width="1.2" d="M566.41,-676.15C578.59,-672.56 587.25,-670 587.25,-670 587.25,-670 693.88,-633 693.88,-633 693.88,-633 1170.11,-373.5 1329.2,-286.82"/>
<polygon fill="#0ea5e9" stroke="#0ea5e9" stroke-width="1.2" points="1329.96,-289.19 1334.94,-283.69 1327.62,-284.89 1329.96,-289.19"/>
<text xml:space="preserve" text-anchor="middle" x="960.5" y="-516.43" font-family="Helvetica,sans-Serif" font-size="9.00">2. device_update</text>
<text xml:space="preserve" text-anchor="middle" x="960.5" y="-506.68" font-family="Helvetica,sans-Serif" font-size="9.00">(WS broadcast)</text>
</g>
<!-- ALERTS -->
<g id="node3" class="node">
<title>ALERTS</title>
<path fill="#bfdbfe" stroke="#475569" stroke-width="1.5" d="M1166.88,-255C1166.88,-255 1054.88,-255 1054.88,-255 1048.88,-255 1042.88,-249 1042.88,-243 1042.88,-243 1042.88,-231 1042.88,-231 1042.88,-225 1048.88,-219 1054.88,-219 1054.88,-219 1166.88,-219 1166.88,-219 1172.88,-219 1178.88,-225 1178.88,-231 1178.88,-231 1178.88,-243 1178.88,-243 1178.88,-249 1172.88,-255 1166.88,-255"/>
<text xml:space="preserve" text-anchor="middle" x="1110.88" y="-238.35" font-family="Helvetica,sans-Serif" font-size="12.00">Alert Engine</text>
<text xml:space="preserve" text-anchor="middle" x="1110.88" y="-225.6" font-family="Helvetica,sans-Serif" font-size="12.00">backend/core/alerts.py</text>
</g>
<!-- STORE&#45;&gt;ALERTS -->
<g id="edge3" class="edge">
<title>STORE&#45;&gt;ALERTS</title>
<path fill="none" stroke="#0ea5e9" stroke-width="1.2" stroke-dasharray="5,2" d="M878.67,-310.4C933.29,-296.7 999.88,-280 999.88,-280 999.88,-280 1026.74,-269.5 1053.92,-258.87"/>
<polygon fill="#0ea5e9" stroke="#0ea5e9" stroke-width="1.2" points="1054.63,-261.23 1060.26,-256.4 1052.84,-256.66 1054.63,-261.23"/>
<text xml:space="preserve" text-anchor="middle" x="960.5" y="-310.65" font-family="Helvetica,sans-Serif" font-size="9.00">3. check thresholds</text>
<text xml:space="preserve" text-anchor="middle" x="960.5" y="-300.9" font-family="Helvetica,sans-Serif" font-size="9.00">(internal call)</text>
</g>
<!-- ALERTS&#45;&gt;STORE -->
<g id="edge4" class="edge">
<title>ALERTS&#45;&gt;STORE</title>
<path fill="none" stroke="#0ea5e9" stroke-width="1.2" stroke-dasharray="5,2" d="M1042.27,-241.84C988.11,-245.71 921.12,-250.5 921.12,-250.5 921.12,-250.5 882.14,-277.32 850.05,-299.41"/>
<polygon fill="#0ea5e9" stroke="#0ea5e9" stroke-width="1.2" points="848.78,-297.31 844.4,-303.3 851.55,-301.35 848.78,-297.31"/>
<text xml:space="preserve" text-anchor="middle" x="960.5" y="-261.45" font-family="Helvetica,sans-Serif" font-size="9.00">4. store alert</text>
<text xml:space="preserve" text-anchor="middle" x="960.5" y="-251.7" font-family="Helvetica,sans-Serif" font-size="9.00">(internal call)</text>
</g>
<!-- ALERTS&#45;&gt;WSHUB -->
<g id="edge5" class="edge">
<title>ALERTS&#45;&gt;WSHUB</title>
<path fill="none" stroke="#0ea5e9" stroke-width="1.2" d="M1179.6,-242.55C1222.36,-246.06 1277.18,-250.55 1318.71,-253.96"/>
<polygon fill="#0ea5e9" stroke="#0ea5e9" stroke-width="1.2" points="1318.37,-256.39 1325.55,-254.52 1318.77,-251.5 1318.37,-256.39"/>
<text xml:space="preserve" text-anchor="middle" x="1253.38" y="-261.57" font-family="Helvetica,sans-Serif" font-size="9.00">5. alert</text>
<text xml:space="preserve" text-anchor="middle" x="1253.38" y="-251.82" font-family="Helvetica,sans-Serif" font-size="9.00">(WS broadcast)</text>
</g>
<!-- WSHUB&#45;&gt;STORE -->
<g id="edge15" class="edge">
<title>WSHUB&#45;&gt;STORE</title>
<path fill="none" stroke="#0ea5e9" stroke-width="1.2" stroke-dasharray="5,2" d="M1327.26,-270.67C1305.31,-275.5 1284.88,-280 1284.88,-280 1284.88,-280 999.88,-329 999.88,-329 999.88,-329 921.12,-329 921.12,-329 921.12,-329 906.33,-328.87 887.47,-328.7"/>
<polygon fill="#0ea5e9" stroke="#0ea5e9" stroke-width="1.2" points="887.7,-326.25 880.68,-328.64 887.66,-331.15 887.7,-326.25"/>
<text xml:space="preserve" text-anchor="middle" x="1110.88" y="-333.49" font-family="Helvetica,sans-Serif" font-size="9.00">16. toggle → mutate</text>
<text xml:space="preserve" text-anchor="middle" x="1110.88" y="-322.24" font-family="Helvetica,sans-Serif" font-size="9.00">(internal call)</text>
</g>
<!-- DASH -->
<g id="node6" class="node">
<title>DASH</title>
<path fill="#bbf7d0" stroke="#475569" stroke-width="1.5" d="M144.5,-544.12C144.5,-544.12 50.5,-544.12 50.5,-544.12 44.5,-544.12 38.5,-538.12 38.5,-532.12 38.5,-532.12 38.5,-509.88 38.5,-509.88 38.5,-503.88 44.5,-497.88 50.5,-497.88 50.5,-497.88 144.5,-497.88 144.5,-497.88 150.5,-497.88 156.5,-503.88 156.5,-509.88 156.5,-509.88 156.5,-532.12 156.5,-532.12 156.5,-538.12 150.5,-544.12 144.5,-544.12"/>
<text xml:space="preserve" text-anchor="middle" x="97.5" y="-528.73" font-family="Helvetica,sans-Serif" font-size="12.00">React Dashboard</text>
<text xml:space="preserve" text-anchor="middle" x="97.5" y="-515.98" font-family="Helvetica,sans-Serif" font-size="12.00">(Vite + WebSocket)</text>
<text xml:space="preserve" text-anchor="middle" x="97.5" y="-503.23" font-family="Helvetica,sans-Serif" font-size="12.00">dashboard/src/</text>
</g>
<!-- WSHUB&#45;&gt;DASH -->
<g id="edge6" class="edge">
<title>WSHUB&#45;&gt;DASH</title>
<path fill="none" stroke="#7c3aed" stroke-width="2" d="M1340.07,-235.2C1265.2,-190.84 1111.88,-100 1111.88,-100 487,-100 487,-100 487,-100 487,-100 222,-152 222,-152 222,-152 139.77,-397.68 109.51,-488.11"/>
<polygon fill="#7c3aed" stroke="#7c3aed" stroke-width="2" points="107.27,-487.07 107.37,-494.49 111.92,-488.63 107.27,-487.07"/>
<text xml:space="preserve" text-anchor="middle" x="807.5" y="-110.95" font-family="Helvetica,sans-Serif" font-size="9.00">6. snapshot / device_update / alert</text>
<text xml:space="preserve" text-anchor="middle" x="807.5" y="-101.2" font-family="Helvetica,sans-Serif" font-size="9.00">WS (JSON)</text>
</g>
<!-- REST -->
<g id="node5" class="node">
<title>REST</title>
<path fill="#bfdbfe" stroke="#475569" stroke-width="1.5" d="M554.88,-351.12C554.88,-351.12 421.12,-351.12 421.12,-351.12 415.12,-351.12 409.12,-345.12 409.12,-339.12 409.12,-339.12 409.12,-316.88 409.12,-316.88 409.12,-310.88 415.12,-304.88 421.12,-304.88 421.12,-304.88 554.88,-304.88 554.88,-304.88 560.88,-304.88 566.88,-310.88 566.88,-316.88 566.88,-316.88 566.88,-339.12 566.88,-339.12 566.88,-345.12 560.88,-351.12 554.88,-351.12"/>
<text xml:space="preserve" text-anchor="middle" x="488" y="-335.73" font-family="Helvetica,sans-Serif" font-size="12.00">REST Routes</text>
<text xml:space="preserve" text-anchor="middle" x="488" y="-322.98" font-family="Helvetica,sans-Serif" font-size="12.00">/ api/devices</text>
<text xml:space="preserve" text-anchor="middle" x="488" y="-310.23" font-family="Helvetica,sans-Serif" font-size="12.00">backend/routes/devices.py</text>
</g>
<!-- REST&#45;&gt;STORE -->
<g id="edge14" class="edge">
<title>REST&#45;&gt;STORE</title>
<path fill="none" stroke="#0ea5e9" stroke-width="1.2" stroke-dasharray="5,2" d="M567.48,-328C616.25,-328 678.73,-328 727.57,-328"/>
<polygon fill="#0ea5e9" stroke="#0ea5e9" stroke-width="1.2" points="727.4,-330.45 734.4,-328 727.4,-325.55 727.4,-330.45"/>
<text xml:space="preserve" text-anchor="middle" x="658.62" y="-338.95" font-family="Helvetica,sans-Serif" font-size="9.00">15. read / mutate</text>
<text xml:space="preserve" text-anchor="middle" x="658.62" y="-329.2" font-family="Helvetica,sans-Serif" font-size="9.00">(internal call)</text>
</g>
<!-- REST&#45;&gt;DASH -->
<g id="edge9" class="edge">
<title>REST&#45;&gt;DASH</title>
<path fill="none" stroke="#7c3aed" stroke-width="1.2" d="M455.99,-304.2C416.9,-274.2 354.75,-226.5 354.75,-226.5 354.75,-226.5 222,-226.5 222,-226.5 222,-226.5 143.53,-413.63 111.69,-489.56"/>
<polygon fill="#7c3aed" stroke="#7c3aed" stroke-width="1.2" points="109.55,-488.32 109.1,-495.72 114.07,-490.21 109.55,-488.32"/>
<text xml:space="preserve" text-anchor="middle" x="288.38" y="-237.45" font-family="Helvetica,sans-Serif" font-size="9.00">9. JSON response</text>
<text xml:space="preserve" text-anchor="middle" x="288.38" y="-227.7" font-family="Helvetica,sans-Serif" font-size="9.00">HTTP 200</text>
</g>
<!-- DASH&#45;&gt;WSHUB -->
<g id="edge7" class="edge">
<title>DASH&#45;&gt;WSHUB</title>
<path fill="none" stroke="#7c3aed" stroke-width="2" d="M105.76,-497.18C132.24,-410.36 222,-116 222,-116 222,-116 487,0 487,0 487,0 487,0 1111.88,0 1111.88,0 1284.88,-155 1284.88,-155 1284.88,-155 1323.73,-197.37 1351.84,-228.02"/>
<polygon fill="#7c3aed" stroke="#7c3aed" stroke-width="2" points="1349.79,-229.41 1356.32,-232.91 1353.4,-226.09 1349.79,-229.41"/>
<text xml:space="preserve" text-anchor="middle" x="807.5" y="-10.95" font-family="Helvetica,sans-Serif" font-size="9.00">7. toggle</text>
<text xml:space="preserve" text-anchor="middle" x="807.5" y="-1.2" font-family="Helvetica,sans-Serif" font-size="9.00">WS (JSON)</text>
</g>
<!-- DASH&#45;&gt;REST -->
<g id="edge8" class="edge">
<title>DASH&#45;&gt;REST</title>
<path fill="none" stroke="#7c3aed" stroke-width="1.2" d="M106.7,-497.13C134.28,-416.84 222,-161.5 222,-161.5 222,-161.5 354.75,-161.5 354.75,-161.5 354.75,-161.5 424.46,-249.26 462.66,-297.35"/>
<polygon fill="#7c3aed" stroke="#7c3aed" stroke-width="1.2" points="460.65,-298.76 466.92,-302.72 464.49,-295.72 460.65,-298.76"/>
<text xml:space="preserve" text-anchor="middle" x="288.38" y="-172.45" font-family="Helvetica,sans-Serif" font-size="9.00">8. GET /api/devices/stats/usage</text>
<text xml:space="preserve" text-anchor="middle" x="288.38" y="-162.7" font-family="Helvetica,sans-Serif" font-size="9.00">HTTP GET</text>
</g>
<!-- USER -->
<g id="node8" class="node">
<title>USER</title>
<path fill="#86efac" stroke="#475569" stroke-width="1.5" d="M539.33,-580.51C539.33,-580.51 539.33,-585.49 539.33,-585.49 539.33,-587.97 536.98,-591.28 534.64,-592.1 534.64,-592.1 513.95,-599.36 513.95,-599.36 511.61,-600.18 506.77,-601 504.29,-601 504.29,-601 471.71,-601 471.71,-601 469.23,-601 464.39,-600.18 462.05,-599.36 462.05,-599.36 441.36,-592.1 441.36,-592.1 439.02,-591.28 436.67,-587.97 436.67,-585.49 436.67,-585.49 436.67,-580.51 436.67,-580.51 436.67,-578.03 439.02,-574.72 441.36,-573.9 441.36,-573.9 462.05,-566.64 462.05,-566.64 464.39,-565.82 469.23,-565 471.71,-565 471.71,-565 504.29,-565 504.29,-565 506.77,-565 511.61,-565.82 513.95,-566.64 513.95,-566.64 534.64,-573.9 534.64,-573.9 536.98,-574.72 539.33,-578.03 539.33,-580.51"/>
<text xml:space="preserve" text-anchor="middle" x="488" y="-577.98" font-family="Helvetica,sans-Serif" font-size="12.00">Boss / User</text>
</g>
<!-- DASH&#45;&gt;USER -->
<g id="edge16" class="edge">
<title>DASH&#45;&gt;USER</title>
<path fill="none" stroke="#475569" stroke-width="1.2" stroke-dasharray="1,5" d="M157.08,-530.35C230.11,-542 354.22,-561.81 427.62,-573.52"/>
<polygon fill="#475569" stroke="#475569" stroke-width="1.2" points="427.22,-575.94 434.52,-574.62 427.99,-571.1 427.22,-575.94"/>
<text xml:space="preserve" text-anchor="middle" x="288.38" y="-562.38" font-family="Helvetica,sans-Serif" font-size="9.00">sees live UI</text>
</g>
<!-- BOT -->
<g id="node7" class="node">
<title>BOT</title>
<path fill="#bbf7d0" stroke="#475569" stroke-width="1.5" d="M167,-630.12C167,-630.12 28,-630.12 28,-630.12 22,-630.12 16,-624.12 16,-618.12 16,-618.12 16,-595.88 16,-595.88 16,-589.88 22,-583.88 28,-583.88 28,-583.88 167,-583.88 167,-583.88 173,-583.88 179,-589.88 179,-595.88 179,-595.88 179,-618.12 179,-618.12 179,-624.12 173,-630.12 167,-630.12"/>
<text xml:space="preserve" text-anchor="middle" x="97.5" y="-614.73" font-family="Helvetica,sans-Serif" font-size="12.00">Discord Bot</text>
<text xml:space="preserve" text-anchor="middle" x="97.5" y="-601.98" font-family="Helvetica,sans-Serif" font-size="12.00">(discord.py + REST polling)</text>
<text xml:space="preserve" text-anchor="middle" x="97.5" y="-589.23" font-family="Helvetica,sans-Serif" font-size="12.00">bot/</text>
</g>
<!-- BOT&#45;&gt;REST -->
<g id="edge10" class="edge">
<title>BOT&#45;&gt;REST</title>
<path fill="none" stroke="#dc2626" stroke-width="1.2" d="M142.99,-583.24C161.61,-573.29 179,-564 179,-564 179,-564 222,-356.5 222,-356.5 222,-356.5 322.94,-345.64 400.22,-337.33"/>
<polygon fill="#dc2626" stroke="#dc2626" stroke-width="1.2" points="400.06,-339.81 406.76,-336.63 399.54,-334.94 400.06,-339.81"/>
<text xml:space="preserve" text-anchor="middle" x="288.38" y="-367.45" font-family="Helvetica,sans-Serif" font-size="9.00">10. GET /api/devices</text>
<text xml:space="preserve" text-anchor="middle" x="288.38" y="-357.7" font-family="Helvetica,sans-Serif" font-size="9.00">HTTP GET</text>
</g>
<!-- BOT&#45;&gt;REST -->
<g id="edge11" class="edge">
<title>BOT&#45;&gt;REST</title>
<path fill="none" stroke="#dc2626" stroke-width="1.2" d="M142.99,-583.24C161.61,-573.29 179,-564 179,-564 179,-564 222,-312.5 222,-312.5 222,-312.5 354.75,-312.5 354.75,-312.5 354.75,-312.5 375.18,-314.89 399.99,-317.8"/>
<polygon fill="#dc2626" stroke="#dc2626" stroke-width="1.2" points="399.5,-320.21 406.74,-318.59 400.07,-315.34 399.5,-320.21"/>
<text xml:space="preserve" text-anchor="middle" x="288.38" y="-323.45" font-family="Helvetica,sans-Serif" font-size="9.00">11. GET /api/devices/{room}</text>
<text xml:space="preserve" text-anchor="middle" x="288.38" y="-313.7" font-family="Helvetica,sans-Serif" font-size="9.00">HTTP GET</text>
</g>
<!-- BOT&#45;&gt;REST -->
<g id="edge12" class="edge">
<title>BOT&#45;&gt;REST</title>
<path fill="none" stroke="#dc2626" stroke-width="1.2" d="M142.99,-583.24C161.61,-573.29 179,-564 179,-564 179,-564 222,-511.5 222,-511.5 222,-511.5 354.75,-447 354.75,-447 354.75,-447 415.31,-392.51 454.47,-357.27"/>
<polygon fill="#dc2626" stroke="#dc2626" stroke-width="1.2" points="455.64,-359.51 459.2,-353.01 452.36,-355.87 455.64,-359.51"/>
<text xml:space="preserve" text-anchor="middle" x="288.38" y="-522.45" font-family="Helvetica,sans-Serif" font-size="9.00">12. GET /api/devices/stats/usage</text>
<text xml:space="preserve" text-anchor="middle" x="288.38" y="-512.7" font-family="Helvetica,sans-Serif" font-size="9.00">HTTP GET</text>
</g>
<!-- BOT&#45;&gt;REST -->
<g id="edge13" class="edge">
<title>BOT&#45;&gt;REST</title>
<path fill="none" stroke="#dc2626" stroke-width="1.2" d="M142.99,-583.24C161.61,-573.29 179,-564 179,-564 179,-564 222,-417.5 222,-417.5 222,-417.5 354.75,-382 354.75,-382 354.75,-382 387.69,-368.55 420.69,-355.08"/>
<polygon fill="#dc2626" stroke="#dc2626" stroke-width="1.2" points="421.37,-357.44 426.93,-352.53 419.52,-352.91 421.37,-357.44"/>
<text xml:space="preserve" text-anchor="middle" x="288.38" y="-428.45" font-family="Helvetica,sans-Serif" font-size="9.00">13. GET /api/devices/stats/alerts</text>
<text xml:space="preserve" text-anchor="middle" x="288.38" y="-418.7" font-family="Helvetica,sans-Serif" font-size="9.00">HTTP GET</text>
</g>
<!-- BOT&#45;&gt;USER -->
<g id="edge17" class="edge">
<title>BOT&#45;&gt;USER</title>
<path fill="none" stroke="#475569" stroke-width="1.2" stroke-dasharray="1,5" d="M179.47,-602C253.43,-597.43 361.06,-590.78 427.41,-586.68"/>
<polygon fill="#475569" stroke="#475569" stroke-width="1.2" points="427.45,-589.13 434.28,-586.26 427.14,-584.24 427.45,-589.13"/>
<text xml:space="preserve" text-anchor="middle" x="288.38" y="-610.19" font-family="Helvetica,sans-Serif" font-size="9.00">reads !status</text>
<text xml:space="preserve" text-anchor="middle" x="288.38" y="-600.44" font-family="Helvetica,sans-Serif" font-size="9.00">!room !usage</text>
</g>
</g>
</svg>
